<svg width="24" height="24" viewBox="0 0 24 24" fill="none" xmlns="http://www.w3.org/2000/svg">
  <path d="M2.11719 22H22.1984" stroke="#3A4664" stroke-width="1.5" stroke-miterlimit="10" stroke-linecap="round" stroke-linejoin="round"/>
  <path d="M15.1799 21.9898L3.13114 22.0099L3.12109 7.06986C3.12109 6.39986 3.46249 5.77983 4.01472 5.40983L8.03097 2.73984C8.70369 2.28984 9.58723 2.28984 10.26 2.73984L14.2762 5.40983C14.8385 5.77983 15.1698 6.39986 15.1698 7.06986L15.1799 21.9898Z" stroke="#3A4664" stroke-width="1.5" stroke-miterlimit="10" stroke-linecap="round" stroke-linejoin="round"/>
  <path d="M20.1709 22.01V18" stroke="#3A4664" stroke-width="1.5" stroke-miterlimit="10" stroke-linecap="round" stroke-linejoin="round"/>
  <path d="M20.1907 12C19.0863 12 18.1826 12.9 18.1826 14V16C18.1826 17.1 19.0863 18 20.1907 18C21.2952 18 22.1989 17.1 22.1989 16V14C22.1989 12.9 21.2952 12 20.1907 12Z" stroke="#3A4664" stroke-width="1.5" stroke-miterlimit="10" stroke-linecap="round" stroke-linejoin="round"/>
  <path d="M3.12109 14H15.1698" stroke="#3A4664" stroke-width="1.5" stroke-miterlimit="10" stroke-linecap="round" stroke-linejoin="round"/>
  <path d="M9.14551 22V18.25" stroke="#3A4664" stroke-width="1.5" stroke-miterlimit="10" stroke-linecap="round" stroke-linejoin="round"/>
  <path d="M9.14574 10.5C9.97753 10.5 10.6518 9.82843 10.6518 9C10.6518 8.17157 9.97753 7.5 9.14574 7.5C8.31395 7.5 7.63965 8.17157 7.63965 9C7.63965 9.82843 8.31395 10.5 9.14574 10.5Z" stroke="#3A4664" stroke-width="1.5" stroke-miterlimit="10" stroke-linecap="round" stroke-linejoin="round"/>
</svg>
