<svg width="24" height="24" viewBox="0 0 24 24" fill="none" xmlns="http://www.w3.org/2000/svg">
  <path d="M22.1986 8.52V3.98C22.1986 2.57 21.556 2 19.9595 2H15.9031C14.3067 2 13.6641 2.57 13.6641 3.98V8.51C13.6641 9.93 14.3067 10.49 15.9031 10.49H19.9595C21.556 10.5 22.1986 9.93 22.1986 8.52Z" fill="#107EE3"/>
  <path d="M22.1986 19.77V15.73C22.1986 14.14 21.556 13.5 19.9595 13.5H15.9031C14.3067 13.5 13.6641 14.14 13.6641 15.73V19.77C13.6641 21.36 14.3067 22 15.9031 22H19.9595C21.556 22 22.1986 21.36 22.1986 19.77Z" fill="#107EE3"/>
  <path d="M10.6517 8.52V3.98C10.6517 2.57 10.0091 2 8.41265 2H4.35624C2.75979 2 2.11719 2.57 2.11719 3.98V8.51C2.11719 9.93 2.75979 10.49 4.35624 10.49H8.41265C10.0091 10.5 10.6517 9.93 10.6517 8.52Z" fill="#107EE3"/>
  <path d="M10.6517 19.77V15.73C10.6517 14.14 10.0091 13.5 8.41265 13.5H4.35624C2.75979 13.5 2.11719 14.14 2.11719 15.73V19.77C2.11719 21.36 2.75979 22 4.35624 22H8.41265C10.0091 22 10.6517 21.36 10.6517 19.77Z" fill="#107EE3"/>
</svg>
