<svg width="24" height="24" viewBox="0 0 24 24" fill="none" xmlns="http://www.w3.org/2000/svg">
  <path d="M2.09375 22H22.1607" stroke="#3A4664" stroke-width="1.5" stroke-miterlimit="10" stroke-linecap="round" stroke-linejoin="round"/>
  <path d="M3.04688 22L3.09704 9.96999C3.09704 9.35999 3.38801 8.78004 3.86962 8.40004L10.893 2.95003C11.6155 2.39003 12.6288 2.39003 13.3613 2.95003L20.3847 8.39003C20.8764 8.77003 21.1573 9.34999 21.1573 9.96999V22" stroke="#3A4664" stroke-width="1.5" stroke-miterlimit="10" stroke-linejoin="round"/>
  <path d="M13.1309 17H11.1242C10.2914 17 9.61914 17.67 9.61914 18.5V22H14.6359V18.5C14.6359 17.67 13.9636 17 13.1309 17Z" stroke="#3A4664" stroke-width="1.5" stroke-miterlimit="10" stroke-linejoin="round"/>
  <path d="M9.61844 13.75H7.61175C7.0599 13.75 6.6084 13.3 6.6084 12.75V11.25C6.6084 10.7 7.0599 10.25 7.61175 10.25H9.61844C10.1703 10.25 10.6218 10.7 10.6218 11.25V12.75C10.6218 13.3 10.1703 13.75 9.61844 13.75Z" stroke="#3A4664" stroke-width="1.5" stroke-miterlimit="10" stroke-linejoin="round"/>
  <path d="M16.6419 13.75H14.6352C14.0833 13.75 13.6318 13.3 13.6318 12.75V11.25C13.6318 10.7 14.0833 10.25 14.6352 10.25H16.6419C17.1937 10.25 17.6452 10.7 17.6452 11.25V12.75C17.6452 13.3 17.1937 13.75 16.6419 13.75Z" stroke="#3A4664" stroke-width="1.5" stroke-miterlimit="10" stroke-linejoin="round"/>
  <path d="M19.1509 7L19.1208 4H14.7061" stroke="#3A4664" stroke-width="1.5" stroke-miterlimit="10" stroke-linecap="round" stroke-linejoin="round"/>
</svg>
