<svg width="25" height="25" viewBox="0 0 25 25" fill="none" xmlns="http://www.w3.org/2000/svg">
  <path d="M12.8333 15.0034C10.7033 15.0034 8.96335 13.2734 8.96335 11.1334C8.96335 8.99344 10.7033 7.27344 12.8333 7.27344C14.9633 7.27344 16.7033 9.00344 16.7033 11.1434C16.7033 13.2834 14.9633 15.0034 12.8333 15.0034ZM12.8333 8.77344C11.5333 8.77344 10.4633 9.83344 10.4633 11.1434C10.4633 12.4534 11.5233 13.5134 12.8333 13.5134C14.1433 13.5134 15.2033 12.4534 15.2033 11.1434C15.2033 9.83344 14.1333 8.77344 12.8333 8.77344Z" fill="#3A4664"/>
  <path d="M12.8333 23.5935C11.3533 23.5935 9.86331 23.0335 8.70331 21.9235C5.75331 19.0835 2.49331 14.5535 3.72331 9.1635C4.83331 4.2735 9.10331 2.0835 12.8333 2.0835C12.8333 2.0835 12.8333 2.0835 12.8433 2.0835C16.5733 2.0835 20.8433 4.2735 21.9533 9.1735C23.1733 14.5635 19.9133 19.0835 16.9633 21.9235C15.8033 23.0335 14.3133 23.5935 12.8333 23.5935ZM12.8333 3.5835C9.92331 3.5835 6.18331 5.1335 5.19331 9.4935C4.11331 14.2035 7.07331 18.2635 9.75331 20.8335C11.4833 22.5035 14.1933 22.5035 15.9233 20.8335C18.5933 18.2635 21.5533 14.2035 20.4933 9.4935C19.4933 5.1335 15.7433 3.5835 12.8333 3.5835Z" fill="#3A4664"/>
</svg>
