<svg width="111" height="33" viewBox="0 0 111 33" fill="none" xmlns="http://www.w3.org/2000/svg">
  <path d="M0.383789 14.9492C0.383789 14.334 0.413086 13.7334 0.47168 13.1475C0.544922 12.5615 0.69873 12.0415 0.933105 11.5874C1.16748 11.1187 1.50439 10.7451 1.94385 10.4668C2.3833 10.1738 2.97656 10.0273 3.72363 10.0273C4.4707 10.0273 5.06396 10.1738 5.50342 10.4668C5.94287 10.7451 6.27979 11.1187 6.51416 11.5874C6.74854 12.0415 6.89502 12.5615 6.95361 13.1475C7.02686 13.7334 7.06348 14.334 7.06348 14.9492V27.0781C7.06348 27.6934 7.02686 28.3013 6.95361 28.9019C6.89502 29.4878 6.74854 30.0151 6.51416 30.4839C6.27979 30.938 5.94287 31.3042 5.50342 31.5825C5.06396 31.8608 4.4707 32 3.72363 32C2.97656 32 2.3833 31.8608 1.94385 31.5825C1.50439 31.3042 1.16748 30.938 0.933105 30.4839C0.69873 30.0151 0.544922 29.4878 0.47168 28.9019C0.413086 28.3013 0.383789 27.6934 0.383789 27.0781V14.9492ZM7.10742 4.57812C7.10742 5.70605 6.81445 6.54834 6.22852 7.10498C5.64258 7.64697 4.82227 7.91797 3.76758 7.91797C2.71289 7.91797 1.89258 7.64697 1.30664 7.10498C0.720703 6.54834 0.427734 5.70605 0.427734 4.57812C0.427734 3.40625 0.720703 2.55664 1.30664 2.0293C1.89258 1.50195 2.71289 1.23828 3.76758 1.23828C4.89551 1.23828 5.73047 1.50195 6.27246 2.0293C6.8291 2.55664 7.10742 3.40625 7.10742 4.57812Z" fill="#2AB4FF"/>
  <path d="M21.5999 31.37C21.5999 31.85 20.1749 32.09 17.3249 32.09C14.4449 32.09 13.0049 31.865 13.0049 31.415V2.075C13.0049 1.025 13.5599 0.499998 14.6699 0.499998H23.2649C31.1549 0.499998 35.0999 3.575 35.0999 9.725C35.0999 11.585 34.7399 13.28 34.0199 14.81C33.2999 16.31 32.2799 17.51 30.9599 18.41L36.6299 27.86C36.3899 28.58 35.6099 29.405 34.2899 30.335C32.4899 31.625 31.0049 32.27 29.8349 32.27C28.6649 32.27 27.7949 31.85 27.2249 31.01L22.9949 21.155H21.5999V31.37ZM21.5999 8.465V15.215H21.8249C24.6749 15.215 26.0999 14.03 26.0999 11.66C26.0999 10.58 25.8149 9.785 25.2449 9.275C24.7049 8.735 23.8049 8.465 22.5449 8.465H21.5999ZM54.1729 13.01C54.7429 13.01 55.0279 14.06 55.0279 16.16C55.0279 16.79 54.9529 17.54 54.8029 18.41C54.6829 19.25 54.4429 19.67 54.0829 19.67H48.3679V24.17H56.6479C57.1579 24.17 57.5029 24.83 57.6829 26.15C57.7729 26.72 57.8179 27.335 57.8179 27.995C57.8179 28.625 57.7279 29.45 57.5479 30.47C57.3679 31.49 57.0679 32 56.6479 32H41.2579C40.1179 32 39.5479 31.535 39.5479 30.605V1.67C39.5479 0.889998 39.8929 0.499998 40.5829 0.499998H56.6929C57.3229 0.499998 57.6379 1.835 57.6379 4.505C57.6379 7.145 57.3229 8.465 56.6929 8.465H48.3679V13.01H54.1729ZM86.4002 31.01C86.4002 31.64 84.9902 31.955 82.1702 31.955C79.3502 31.955 77.8202 31.73 77.5802 31.28L70.0652 17.24V31.235C70.0652 31.775 68.6702 32.045 65.8802 32.045C63.1202 32.045 61.7402 31.775 61.7402 31.235V1.13C61.7402 0.679998 62.9252 0.454998 65.2952 0.454998C66.2252 0.454998 67.3052 0.544998 68.5352 0.724998C69.7952 0.874997 70.5602 1.175 70.8302 1.625L78.0302 15.485V1.355C78.0302 0.784998 79.4252 0.499998 82.2152 0.499998C85.0052 0.499998 86.4002 0.784998 86.4002 1.355V31.01ZM104.465 31.28C104.465 31.88 102.98 32.18 100.01 32.18C97.0399 32.18 95.5549 31.88 95.5549 31.28V8.69H90.1549C89.6449 8.69 89.2849 8 89.0749 6.62C88.9849 5.96 88.9399 5.285 88.9399 4.595C88.9399 3.905 88.9849 3.23 89.0749 2.57C89.2849 1.19 89.6449 0.499998 90.1549 0.499998H109.73C110.24 0.499998 110.6 1.19 110.81 2.57C110.9 3.23 110.945 3.905 110.945 4.595C110.945 5.285 110.9 5.96 110.81 6.62C110.6 8 110.24 8.69 109.73 8.69H104.465V31.28Z" fill="#1E86E5"/>
</svg>
