<svg width="33" height="33" viewBox="0 0 33 33" fill="none" xmlns="http://www.w3.org/2000/svg">
  <path d="M5.32813 5.32812C4.81822 5.32812 4.31977 5.47933 3.8958 5.76262C3.47183 6.04591 3.14138 6.44855 2.94625 6.91964C2.75112 7.39073 2.70006 7.90911 2.79954 8.40922C2.89902 8.90932 3.14456 9.3687 3.50512 9.72926C3.86567 10.0898 4.32505 10.3354 4.82516 10.4348C5.32527 10.5343 5.84364 10.4833 6.31473 10.2881C6.78582 10.093 7.18847 9.76255 7.47176 9.33858C7.75505 8.91461 7.90625 8.41615 7.90625 7.90625C7.90625 7.22249 7.63463 6.56673 7.15114 6.08324C6.66764 5.59975 6.01189 5.32812 5.32813 5.32812ZM5.32813 13.9219C4.81822 13.9219 4.31977 14.0731 3.8958 14.3564C3.47183 14.6397 3.14138 15.0423 2.94625 15.5134C2.75112 15.9845 2.70006 16.5029 2.79954 17.003C2.89902 17.5031 3.14456 17.9625 3.50512 18.323C3.86567 18.6836 4.32505 18.9291 4.82516 19.0286C5.32527 19.1281 5.84364 19.077 6.31473 18.8819C6.78582 18.6867 7.18847 18.3563 7.47176 17.9323C7.75505 17.5084 7.90625 17.0099 7.90625 16.5C7.90625 15.8162 7.63463 15.1605 7.15114 14.677C6.66764 14.1935 6.01189 13.9219 5.32813 13.9219ZM5.32813 22.5156C4.81822 22.5156 4.31977 22.6668 3.8958 22.9501C3.47183 23.2334 3.14138 23.6361 2.94625 24.1071C2.75112 24.5782 2.70006 25.0966 2.79954 25.5967C2.89902 26.0968 3.14456 26.5562 3.50512 26.9168C3.86567 27.2773 4.32505 27.5229 4.82516 27.6223C5.32527 27.7218 5.84364 27.6708 6.31473 27.4756C6.78582 27.2805 7.18847 26.95 7.47176 26.5261C7.75505 26.1021 7.90625 25.6037 7.90625 25.0937C7.90625 24.41 7.63463 23.7542 7.15114 23.2707C6.66764 22.7872 6.01189 22.5156 5.32813 22.5156ZM29.3906 23.375H12.2031C11.9752 23.375 11.7566 23.4655 11.5955 23.6267C11.4343 23.7879 11.3438 24.0065 11.3438 24.2344V25.9531C11.3438 26.181 11.4343 26.3996 11.5955 26.5608C11.7566 26.722 11.9752 26.8125 12.2031 26.8125H29.3906C29.6186 26.8125 29.8371 26.722 29.9983 26.5608C30.1595 26.3996 30.25 26.181 30.25 25.9531V24.2344C30.25 24.0065 30.1595 23.7879 29.9983 23.6267C29.8371 23.4655 29.6186 23.375 29.3906 23.375ZM29.3906 6.1875H12.2031C11.9752 6.1875 11.7566 6.27804 11.5955 6.43921C11.4343 6.60037 11.3438 6.81895 11.3438 7.04687V8.76562C11.3438 8.99355 11.4343 9.21213 11.5955 9.37329C11.7566 9.53446 11.9752 9.625 12.2031 9.625H29.3906C29.6186 9.625 29.8371 9.53446 29.9983 9.37329C30.1595 9.21213 30.25 8.99355 30.25 8.76562V7.04687C30.25 6.81895 30.1595 6.60037 29.9983 6.43921C29.8371 6.27804 29.6186 6.1875 29.3906 6.1875ZM29.3906 14.7812H12.2031C11.9752 14.7812 11.7566 14.8718 11.5955 15.033C11.4343 15.1941 11.3438 15.4127 11.3438 15.6406V17.3594C11.3438 17.5873 11.4343 17.8059 11.5955 17.967C11.7566 18.1282 11.9752 18.2187 12.2031 18.2187H29.3906C29.6186 18.2187 29.8371 18.1282 29.9983 17.967C30.1595 17.8059 30.25 17.5873 30.25 17.3594V15.6406C30.25 15.4127 30.1595 15.1941 29.9983 15.033C29.8371 14.8718 29.6186 14.7812 29.3906 14.7812Z" fill="#7E8DB4"/>
</svg>
