<svg width="20" height="20" viewBox="0 0 20 20" fill="none" xmlns="http://www.w3.org/2000/svg">
  <path
    d="M9.20833 12.4587L7.66667 14.0003C7.34167 14.3253 6.825 14.3253 6.49167 14.0087C6.4 13.917 6.30833 13.8337 6.21667 13.742C5.35833 12.8753 4.58333 11.967 3.89167 11.017C3.20833 10.067 2.65833 9.11699 2.25833 8.17533C1.86667 7.22533 1.66667 6.31699 1.66667 5.45033C1.66667 4.88366 1.76667 4.34199 1.96667 3.84199C2.16667 3.33366 2.48333 2.86699 2.925 2.45033C3.45833 1.92533 4.04167 1.66699 4.65833 1.66699C4.89167 1.66699 5.125 1.71699 5.33333 1.81699C5.55 1.91699 5.74167 2.06699 5.89167 2.28366L7.825 5.00866C7.975 5.21699 8.08333 5.40866 8.15833 5.59199C8.23333 5.76699 8.275 5.94199 8.275 6.10033C8.275 6.30033 8.21667 6.50033 8.1 6.69199C7.99167 6.88366 7.83333 7.08366 7.63333 7.28366L7 7.94199C6.90833 8.03366 6.86667 8.14199 6.86667 8.27533C6.86667 8.34199 6.875 8.40033 6.89167 8.46699C6.91667 8.53366 6.94167 8.58366 6.95833 8.63366C7.10834 8.90866 7.36667 9.26699 7.73333 9.70033C8.10833 10.1337 8.50833 10.5753 8.94167 11.017C9.025 11.1003 9.11667 11.1837 9.2 11.267C9.53333 11.592 9.54167 12.1253 9.20833 12.4587Z"
    fill="#107EE3" />
  <path
    d="M18.3084 15.2752C18.3084 15.5085 18.2667 15.7502 18.1834 15.9835C18.1584 16.0502 18.1334 16.1169 18.1001 16.1835C17.9584 16.4835 17.7751 16.7669 17.5334 17.0335C17.1251 17.4835 16.6751 17.8085 16.1667 18.0169C16.1584 18.0169 16.1501 18.0252 16.1417 18.0252C15.6501 18.2252 15.1167 18.3335 14.5417 18.3335C13.6917 18.3335 12.7834 18.1335 11.8251 17.7252C10.8667 17.3169 9.90841 16.7669 8.95841 16.0752C8.63341 15.8335 8.30841 15.5919 8.00008 15.3335L10.7251 12.6085C10.9584 12.7835 11.1667 12.9169 11.3417 13.0085C11.3834 13.0252 11.4334 13.0502 11.4917 13.0752C11.5584 13.1002 11.6251 13.1085 11.7001 13.1085C11.8417 13.1085 11.9501 13.0585 12.0417 12.9669L12.6751 12.3419C12.8834 12.1335 13.0834 11.9752 13.2751 11.8752C13.4667 11.7585 13.6584 11.7002 13.8667 11.7002C14.0251 11.7002 14.1917 11.7335 14.3751 11.8085C14.5584 11.8835 14.7501 11.9919 14.9584 12.1335L17.7167 14.0919C17.9334 14.2419 18.0834 14.4169 18.1751 14.6252C18.2584 14.8335 18.3084 15.0419 18.3084 15.2752Z"
    fill="#107EE3" />
</svg>