<svg width="24" height="24" viewBox="0 0 24 24" fill="none" xmlns="http://www.w3.org/2000/svg">
  <path d="M9.30618 10.87C9.20578 10.86 9.08529 10.86 8.97484 10.87C6.58518 10.79 4.6875 8.84 4.6875 6.44C4.6875 3.99 6.67554 2 9.14553 2C11.6055 2 13.6036 3.99 13.6036 6.44C13.5935 8.84 11.6958 10.79 9.30618 10.87Z" stroke="#3A4664" stroke-width="1.5" stroke-linecap="round" stroke-linejoin="round"/>
  <path d="M16.5856 4C18.5335 4 20.0998 5.57 20.0998 7.5C20.0998 9.39 18.5937 10.93 16.7161 11C16.6358 10.99 16.5454 10.99 16.4551 11" stroke="#3A4664" stroke-width="1.5" stroke-linecap="round" stroke-linejoin="round"/>
  <path d="M4.28624 14.56C1.85641 16.18 1.85641 18.82 4.28624 20.43C7.04741 22.27 11.5757 22.27 14.3369 20.43C16.7667 18.81 16.7667 16.17 14.3369 14.56C11.5858 12.73 7.05745 12.73 4.28624 14.56Z" stroke="#3A4664" stroke-width="1.5" stroke-linecap="round" stroke-linejoin="round"/>
  <path d="M18.5234 20C19.2464 19.85 19.9291 19.56 20.4914 19.13C22.0577 17.96 22.0577 16.03 20.4914 14.86C19.9392 14.44 19.2664 14.16 18.5536 14" stroke="#3A4664" stroke-width="1.5" stroke-linecap="round" stroke-linejoin="round"/>
</svg>
